<svg version="1.2" xmlns="http://www.w3.org/2000/svg" viewBox="0 0 550 371" width="1000" height="675">
	<title>5494526-ai</title>
	<defs>
		<clipPath clipPathUnits="userSpaceOnUse" id="cp1">
			<path d="m0 0h550v371h-550z"/>
		</clipPath>
	</defs>
	<style>
		tspan { white-space:pre } 
		.s0 { fill: #201f39 } 
		.s1 { fill: none;stroke: #2b315d;stroke-linecap: round;stroke-linejoin: round;stroke-width: 60 } 
		.s2 { fill: #2b315d } 
		.s3 { fill: #242647 } 
		.s4 { fill: none;stroke: #364b96;stroke-linecap: round;stroke-linejoin: round;stroke-width: 14 } 
		.s5 { fill: none;stroke: #e3a522;stroke-linecap: round;stroke-linejoin: round;stroke-width: 14 } 
		.t6 { font-size: 36px;fill: #242647;font-weight: 900;font-family: "Poppins-Black", "Poppins" } 
	</style>
	<g id="Artboard 1" clip-path="url(#cp1)">
		<g id="Background">
		</g>
		<g id="Objects">
			<g id="&lt;Group&gt;">
				<g id="&lt;Group&gt;">
					<g id="&lt;Group&gt;">
						<path id="&lt;Path&gt;" class="s0" d="m385.7 336c-21.1 0-41.4-4.5-60.4-13.4-15-7-21.5-24.9-14.5-39.9 7-15 24.9-21.5 39.9-14.5 11 5.2 22.7 7.8 35 7.8 45.6 0 82.7-37.1 82.7-82.7 0-45.6-37.1-82.7-82.7-82.7-45.6 0-82.7 37.1-82.7 82.7 0 16.6-13.4 30-30 30-16.6 0-30-13.4-30-30 0-78.7 64-142.7 142.7-142.7 78.7 0 142.7 64 142.7 142.7 0 78.7-64 142.7-142.7 142.7z"/>
						<g id="&lt;Group&gt;">
							<path id="&lt;Path&gt;" class="s0" d="m160.3 336c-78.7 0-142.7-64-142.7-142.7 0-78.7 64-142.7 142.7-142.7 16.6 0 30 13.4 30 30 0 16.6-13.4 30-30 30-45.6 0-82.7 37.1-82.7 82.7 0 45.6 37.1 82.7 82.7 82.7 45.6 0 82.7-37.1 82.7-82.7 0-16.6 13.4-30 30-30 16.6 0 30 13.4 30 30 0 78.7-64 142.7-142.7 142.7z"/>
							<path id="&lt;Path&gt;" class="s0" d="m273 223.3h-88c-16.6 0-30-13.4-30-30 0-16.6 13.4-30 30-30h88c16.6 0 30 13.4 30 30 0 16.6-13.4 30-30 30z"/>
							<path id="&lt;Path&gt;" class="s0" d="m146.6 129.2c0 7.5 4.7 8.4 13.4 3.4 6.5-3.8 54.1-30.9 77.7-44.4 8-4.5 7.8-10.6-0.4-15.3-24.4-14.1-73.7-42.5-78.9-45.5-6.9-4.1-11.8-1.2-11.8 4.3 0 5.4 0 19.9 0 19.9v63.5c0 0 0 6.6 0 14.1z"/>
						</g>
					</g>
					<g id="&lt;Group&gt;">
						<path id="&lt;Path&gt;" class="s1" d="m273 188.7c0-62.2 50.5-112.7 112.7-112.7 62.2 0 112.7 50.5 112.7 112.7 0 62.3-50.5 112.7-112.7 112.7-17.1 0-33.2-3.8-47.7-10.6"/>
						<g id="&lt;Group&gt;">
							<path id="&lt;Path&gt;" class="s1" d="m273 186.7c0 62.3-50.5 112.7-112.7 112.7-62.2 0-112.7-50.4-112.7-112.7 0-62.2 50.5-112.7 112.7-112.7"/>
							<path id="&lt;Path&gt;" class="s1" d="m185 186.7h88"/>
							<path id="&lt;Path&gt;" class="s2" d="m146.6 122.6c0 7.5 4.7 8.4 13.4 3.4 6.5-3.7 54.1-30.9 77.7-44.3 8-4.6 7.8-10.6-0.4-15.4-24.4-14-73.7-42.4-78.9-45.5-6.9-4.1-11.8-1.2-11.8 4.3 0 5.4 0 19.9 0 19.9v63.5c0 0 0 6.7 0 14.1z"/>
						</g>
					</g>
					<g id="&lt;Group&gt;">
						<path id="&lt;Path&gt;" class="s3" d="m298.3 192c-50.7 0-98.5-6.2-140.8-17.3-1.6 3.7-2.5 7.7-2.5 12 0 16.6 13.4 30 30 30h52.3c-12 30.8-42 52.7-77 52.7-45.6 0-82.7-37.1-82.7-82.7 0-13.5 3.3-26.2 9-37.4-19.5-9.3-36.8-19.9-51.2-31.5-11.3 20.4-17.8 43.9-17.8 68.9 0 78.7 64 142.7 142.7 142.7 76.9 0 139.8-61.2 142.6-137.4q-2.3 0-4.6 0z"/>
						<path id="&lt;Path&gt;" class="s3" d="m466 166.8c1.5 6.4 2.4 13 2.4 19.9 0 45.6-37.1 82.7-82.7 82.7-12.3 0-24-2.6-35-7.7-15-7-32.9-0.6-39.9 14.4-7 15-0.5 32.9 14.5 39.9 19 8.9 39.3 13.4 60.4 13.4 78.7 0 142.7-64 142.7-142.7 0-15.1-2.4-29.6-6.7-43.3-16.8 8.8-35.5 16.7-55.7 23.4z"/>
					</g>
					<g id="&lt;Group&gt;">
						<g id="&lt;Group&gt;">
							<path id="&lt;Path&gt;" class="s4" d="m494.4 216.7c-13.1 47.7-56.8 82.7-108.7 82.7-17.1 0-33.2-3.8-47.7-10.6"/>
							<path id="&lt;Path&gt;" class="s5" d="m287.2 131.9c19.3-34.5 56.2-57.9 98.5-57.9 54.5 0 99.9 38.6 110.4 90"/>
						</g>
						<g id="&lt;Group&gt;">
							<path id="&lt;Path&gt;" class="s5" d="m47.6 186.7c0-62.2 50.5-112.7 112.7-112.7h34.8"/>
							<g id="&lt;Group&gt;">
								<path id="&lt;Path&gt;" class="s4" d="m273 186.7c0 62.3-50.5 112.7-112.7 112.7-30.4 0-57.9-12-78.2-31.5"/>
								<path id="&lt;Path&gt;" class="s4" d="m185 186.7h88"/>
							</g>
						</g>
					</g>
				</g>
				<g id="&lt;Group&gt;">
					<text id="" style="transform: matrix(2,0,0,2,1098,297.521)" >
					</text>
					<text id="goFind" style="transform: matrix(2,0,0,2,1006,310.88)" >
						<tspan x="-64.5" y="0" class="t6">g</tspan><tspan  y="0" class="t6">o</tspan><tspan  y="0" class="t6">F</tspan><tspan  y="0" class="t6">i</tspan><tspan  y="0" class="t6">n</tspan><tspan  y="0" class="t6">d
</tspan>
					</text>
				</g>
			</g>
		</g>
	</g>
</svg>